<svg width="114" height="47" viewBox="0 0 114 47" fill="none" xmlns="http://www.w3.org/2000/svg">
<path d="M6.82476 27.0538C6.37772 25.8913 6.02009 24.9673 6.02009 24.5798C6.02009 24.3711 6.0797 24.1327 6.40752 23.9836C6.67575 23.8644 7.21219 23.8346 7.54002 23.8346C7.74863 23.8346 7.83804 23.775 7.83804 23.626C7.83804 23.4769 7.56982 23.4173 7.03337 23.4173C5.90088 23.4173 4.55977 23.5067 4.26175 23.5067C3.90412 23.5067 2.20538 23.4173 0.774863 23.4173C0.298024 23.4173 0 23.4471 0 23.626C0 23.7452 0.0596049 23.8346 0.23842 23.8346C0.417234 23.8346 0.923876 23.8346 1.37091 23.9538C2.414 24.2519 2.86103 24.5798 3.51669 26.249L10.8183 44.521C11.3845 45.9518 11.5335 46.3691 11.8912 46.3691C12.1892 46.3691 12.3084 45.8922 13.1429 44.1037C13.8283 42.6432 15.1694 39.4239 16.9874 35.072C18.5073 31.4057 19.9974 27.8288 20.3253 26.9942C21.1299 24.9673 21.577 24.4606 21.9644 24.1923C22.5306 23.8346 23.1863 23.8346 23.3949 23.8346C23.6333 23.8346 23.7525 23.775 23.7525 23.626C23.7525 23.4769 23.5737 23.4173 23.2459 23.4173C22.3816 23.4173 21.1001 23.5067 20.9213 23.5067C20.5637 23.5067 19.1928 23.4173 18.0007 23.4173C17.5238 23.4173 17.345 23.4769 17.345 23.6558C17.345 23.8048 17.494 23.8346 17.6728 23.8346C18.0007 23.8346 18.4477 23.8346 18.8053 23.9538C19.1034 24.1029 19.1928 24.401 19.1928 24.6394C19.1928 24.9077 19.0736 25.325 18.9245 25.7721C18.2689 27.9182 14.2754 38.3211 12.5468 42.3153L6.82476 27.0538Z" fill="white"/>
<path d="M32.4902 32.0615C32.4902 27.4115 32.4902 26.5769 32.5498 25.6231C32.6095 24.5798 32.8479 24.0731 33.6525 23.924C34.0102 23.8644 34.189 23.8346 34.3976 23.8346C34.5168 23.8346 34.636 23.775 34.636 23.6558C34.636 23.4769 34.487 23.4173 34.1592 23.4173C33.2651 23.4173 31.3876 23.5067 31.2385 23.5067C31.0895 23.5067 29.212 23.4173 28.2285 23.4173C27.9007 23.4173 27.7517 23.4769 27.7517 23.6558C27.7517 23.775 27.8709 23.8346 27.9901 23.8346C28.1987 23.8346 28.5861 23.8644 28.9139 23.9538C29.5696 24.1029 29.8676 24.6096 29.9272 25.6231C29.9868 26.5769 29.9868 27.4115 29.9868 32.0615V37.3076C29.9868 40.1691 29.9868 42.5239 29.8378 43.7758C29.7186 44.6403 29.5696 45.296 28.9736 45.4153C28.7053 45.4749 28.3477 45.5345 28.0795 45.5345C27.9007 45.5345 27.8411 45.6239 27.8411 45.7133C27.8411 45.8922 27.9901 45.9518 28.3179 45.9518C29.212 45.9518 31.0895 45.8624 31.2385 45.8624C31.3876 45.8624 33.2651 45.9518 34.9042 45.9518C35.2321 45.9518 35.3811 45.8624 35.3811 45.7133C35.3811 45.6239 35.3215 45.5345 35.1427 45.5345C34.8744 45.5345 34.2188 45.4749 33.8015 45.4153C32.9075 45.296 32.7287 44.6403 32.6393 43.7758C32.4902 42.5239 32.4902 40.1691 32.4902 37.3076V32.0615Z" fill="white"/>
<path d="M46.987 46.3691C48.5964 46.3691 50.2057 46.0114 51.4872 45.1172C53.5436 43.6566 54.0204 41.3912 54.0204 40.1691C54.0204 37.7845 53.1859 35.9365 49.6692 33.1644L48.8348 32.5086C45.9737 30.273 45.1989 29.2 45.1989 27.5009C45.1989 25.325 46.8082 24.0433 48.8646 24.0433C51.6064 24.0433 52.4111 25.2952 52.5899 25.6231C52.7687 25.9509 52.9475 26.7557 52.9773 27.1134C53.0071 27.3519 53.0369 27.5009 53.2157 27.5009C53.3647 27.5009 53.4244 27.2923 53.4244 26.8154C53.4244 24.7885 53.5436 23.8048 53.5436 23.6558C53.5436 23.5067 53.484 23.4471 53.2455 23.4471C53.0071 23.4471 52.7687 23.4173 52.2025 23.2981C51.4574 23.1192 50.5931 23 49.4308 23C45.6459 23 43.2617 25.1759 43.2617 28.3654C43.2617 30.3923 43.977 32.2403 47.136 34.8336L48.4771 35.9365C51.0402 38.0528 51.9044 39.2451 51.9044 41.3018C51.9044 43.2095 50.5037 45.2662 47.6427 45.2662C45.6459 45.2662 43.679 44.4316 43.2319 42.2259C43.1425 41.8085 43.1425 41.3912 43.1425 41.123C43.1425 40.8845 43.1127 40.7951 42.9339 40.7951C42.7849 40.7951 42.7253 40.9441 42.6955 41.272C42.6657 41.7489 42.5465 42.9412 42.5465 44.4316C42.5465 45.2364 42.5763 45.3556 42.9935 45.5643C44.2154 46.1604 45.5863 46.3691 46.987 46.3691Z" fill="white"/>
<path d="M60.2882 34.6547C60.2882 40.0201 63.6857 46.3691 71.8516 46.3691C79.034 46.3691 83.7427 40.8547 83.7427 34.1778C83.7427 27.2327 78.7359 23 72.0304 23C63.8049 23 60.2882 29.8259 60.2882 34.6547ZM63.1195 33.8201C63.1195 27.2923 66.8448 24.0135 71.8218 24.0135C76.5306 24.0135 80.8817 27.8586 80.8817 35.0124C80.8817 43.6864 75.3385 45.2364 72.6562 45.2364C67.2918 45.2364 63.1195 40.7653 63.1195 33.8201Z" fill="white"/>
<path d="M92.2593 27.6202C93.2129 28.6932 96.5806 32.449 100.038 36.1749C103.197 39.573 107.488 43.9547 107.816 44.2528C109.396 45.8326 109.753 46.1604 109.992 46.1604C110.2 46.1604 110.26 46.0114 110.26 44.0441L110.32 26.5769C110.32 24.7885 110.439 24.1327 111.422 23.924C111.78 23.8346 111.988 23.8346 112.137 23.8346C112.346 23.8346 112.465 23.7452 112.465 23.626C112.465 23.4471 112.257 23.4173 111.929 23.4173C110.707 23.4173 109.723 23.5067 109.396 23.5067C109.068 23.5067 107.637 23.4173 106.296 23.4173C105.939 23.4173 105.7 23.4471 105.7 23.626C105.7 23.7452 105.73 23.8346 105.939 23.8346C106.177 23.8346 106.862 23.8644 107.399 23.9836C108.323 24.2221 108.531 24.8779 108.561 26.8154L108.889 41.9576C107.935 40.9739 104.687 37.3374 101.736 34.1778C97.1468 29.2596 92.7063 24.4606 92.2593 23.9538C91.9612 23.6558 91.4546 23 91.2162 23C90.9777 23 90.8883 23.3279 90.8883 24.4904L90.8585 41.5701C90.8585 44.2826 90.7095 45.147 89.9645 45.3556C89.5174 45.5047 88.981 45.5345 88.7426 45.5345C88.5935 45.5345 88.5041 45.5941 88.5041 45.7133C88.5041 45.922 88.683 45.9518 88.981 45.9518C90.3221 45.9518 91.5738 45.8624 91.842 45.8624C92.1102 45.8624 93.3023 45.9518 95.0011 45.9518C95.3587 45.9518 95.5375 45.8922 95.5375 45.7133C95.5375 45.5941 95.4481 45.5345 95.2991 45.5345C95.0309 45.5345 94.3752 45.5047 93.809 45.3556C93.0043 45.1172 92.7063 44.3422 92.6467 41.898L92.2593 27.6202Z" fill="white"/>
<path d="M23.0799 0.774241C23.0226 0.229404 22.9366 0 22.7359 0C22.5352 0 22.4205 0.200728 22.3058 0.458809L13.8766 18.4671L5.10338 0.430134C4.96003 0.114703 4.84535 0 4.67332 0C4.5013 0 4.38662 0.200728 4.35795 0.516161L2.29366 19.2126C2.17897 20.3023 2.09296 21.4207 1.14683 21.5927C0.716767 21.6787 0.516073 21.6787 0.286707 21.6787C0.143354 21.6787 0 21.7361 0 21.8221C0 22.0229 0.200695 22.0802 0.487402 22.0802C1.26151 22.0802 2.6377 21.9942 2.89574 21.9942C3.12511 21.9942 4.5013 22.0802 5.56212 22.0802C5.90616 22.0802 6.07819 22.0229 6.07819 21.8221C6.07819 21.7361 5.96351 21.6787 5.84882 21.6787C5.6768 21.6787 5.24674 21.6501 4.75934 21.5354C4.32928 21.4493 4.0139 21.0766 4.0139 20.6464C4.0139 20.1589 4.0139 19.6428 4.04257 19.184L5.1894 5.8785H5.30408C5.61946 6.65274 8.83057 13.5349 9.08861 14.051C9.23196 14.3378 11.6976 19.2987 12.4431 20.7038C12.9878 21.7361 13.1312 22.0229 13.3319 22.0229C13.5899 22.0229 13.6759 21.7648 14.278 20.503L21.3023 5.59174H21.3883L22.7645 20.3883C22.8219 20.9045 22.7932 21.392 22.6499 21.4207C22.5065 21.4493 22.4492 21.5067 22.4492 21.6214C22.4492 21.7648 22.5925 21.8508 23.2519 21.9082C24.3128 21.9942 27.4092 22.0802 28.0399 22.0802C28.384 22.0802 28.642 21.9942 28.642 21.8221C28.642 21.7074 28.556 21.6787 28.4127 21.6787C28.126 21.6787 27.3805 21.6787 26.5491 21.4207C25.3162 21.0192 25.1155 19.4134 25.0008 18.3811L23.0799 0.774241Z" fill="white"/>
<path d="M31.9336 11.2122C31.9336 16.3738 35.202 22.4817 43.0578 22.4817C49.9674 22.4817 54.4974 17.1767 54.4974 10.7533C54.4974 4.07194 49.6807 0 43.2298 0C35.3167 0 31.9336 6.56671 31.9336 11.2122ZM34.6573 10.4092C34.6573 4.12928 38.2411 0.97497 43.0291 0.97497C47.5591 0.97497 51.745 4.67412 51.745 11.5563C51.745 19.9009 46.4123 21.392 43.8319 21.392C38.6712 21.392 34.6573 17.0907 34.6573 10.4092Z" fill="white"/>
<path d="M68.1933 1.63451L71.8058 1.69186C74.5581 1.74921 75.2462 2.40875 75.3323 3.26902L75.3609 3.58445C75.3896 3.98591 75.4469 4.07193 75.5903 4.07193C75.705 4.07193 75.791 3.95723 75.791 3.69915C75.791 3.38372 75.877 1.4051 75.877 0.544836C75.877 0.372783 75.877 0.200728 75.7336 0.200728C75.619 0.200728 75.3609 0.286756 74.9309 0.344106C74.4721 0.430134 73.8127 0.487484 72.8952 0.487484H62.1437C61.7997 0.487484 60.7102 0.430134 59.8787 0.344106C59.1046 0.286756 58.8179 0 58.6172 0C58.5026 0 58.3879 0.372783 58.3305 0.544836C58.2732 0.774241 57.6998 3.24034 57.6998 3.5271C57.6998 3.69915 57.7571 3.78518 57.8431 3.78518C57.9578 3.78518 58.0438 3.72783 58.1298 3.49842C58.2158 3.29769 58.3019 3.09696 58.6172 2.60948C59.076 1.92126 59.7641 1.72054 61.5416 1.69186L65.7849 1.63451V13.7643C65.7849 16.5171 65.7849 18.7825 65.6416 19.9869C65.5269 20.8185 65.3835 21.4493 64.8101 21.564C64.5521 21.6214 64.208 21.6787 63.95 21.6787C63.778 21.6787 63.7206 21.7648 63.7206 21.8508C63.7206 22.0229 63.864 22.0802 64.1794 22.0802C65.0395 22.0802 66.8457 21.9942 66.9891 21.9942C67.1324 21.9942 68.9387 22.0802 70.5156 22.0802C70.831 22.0802 70.9743 21.9942 70.9743 21.8508C70.9743 21.7648 70.917 21.6787 70.7449 21.6787C70.4869 21.6787 69.8561 21.6214 69.4548 21.564C68.5946 21.4493 68.4226 20.8185 68.3366 19.9869C68.1933 18.7825 68.1933 16.5171 68.1933 13.7643V1.63451Z" fill="white"/>
<path d="M83.343 13.7643C83.343 16.5171 83.343 18.7825 83.1997 19.9869C83.085 20.8185 82.9416 21.4493 82.3682 21.564C82.1102 21.6214 81.7661 21.6787 81.5081 21.6787C81.3361 21.6787 81.2787 21.7648 81.2787 21.8508C81.2787 22.0229 81.4221 22.0802 81.7375 22.0802C82.1675 22.0802 82.827 22.0229 83.4004 22.0229C84.0024 21.9942 84.4898 21.9942 84.5472 21.9942C84.9773 21.9942 85.6653 22.0229 86.7835 22.0802C87.9017 22.1089 89.4786 22.1662 91.6289 22.1662C92.747 22.1662 92.9764 22.1662 93.1771 21.4207C93.3204 20.8185 93.5498 18.8685 93.5498 18.6391C93.5498 18.4384 93.5498 18.209 93.3778 18.209C93.2344 18.209 93.1771 18.3237 93.1197 18.6391C92.919 19.8148 92.575 20.3883 91.8295 20.7038C91.0841 21.0192 89.8226 21.0192 89.0772 21.0192C86.2674 21.0192 85.8374 20.6464 85.7514 18.6678C85.7227 18.0656 85.7514 14.7393 85.7514 13.7643V11.2408C85.7514 11.1261 85.8087 11.0401 85.9521 11.0401C86.4395 11.0401 89.2779 11.0975 90.052 11.1835C91.1701 11.2982 91.4282 11.7857 91.5428 12.1871C91.6575 12.5599 91.6575 12.8467 91.6575 13.1334C91.6575 13.2768 91.7149 13.3915 91.8582 13.3915C92.0589 13.3915 92.0589 13.0761 92.0589 12.8467C92.0589 12.6459 92.1163 11.5849 92.1736 11.0114C92.2596 10.0651 92.403 9.57765 92.403 9.40559C92.403 9.23354 92.3456 9.17619 92.2596 9.17619C92.1449 9.17619 92.0302 9.31957 91.8295 9.54897C91.5715 9.83573 91.1701 9.89308 90.482 9.95043C89.8226 10.0078 86.2961 10.0078 85.9234 10.0078C85.78 10.0078 85.7514 9.92175 85.7514 9.72103V1.80656C85.7514 1.60583 85.8087 1.51981 85.9234 1.51981C86.2388 1.51981 89.3639 1.54848 89.8513 1.60583C91.3995 1.77789 91.6862 2.12199 91.8869 2.5808C92.0302 2.92491 92.0589 3.4124 92.0589 3.61312C92.0589 3.84253 92.1163 3.98591 92.2883 3.98591C92.403 3.98591 92.4603 3.81385 92.489 3.67047C92.5463 3.32637 92.6037 2.06464 92.6323 1.77789C92.7183 0.974969 92.8617 0.630862 92.8617 0.430134C92.8617 0.286756 92.833 0.172053 92.747 0.172053C92.6037 0.172053 92.489 0.286756 92.3456 0.315431C92.1163 0.372783 91.6575 0.430134 91.1128 0.458809C90.4534 0.487484 84.7479 0.487484 84.5472 0.487484L83.3717 0.430134C82.7409 0.401458 81.9668 0.401458 81.3074 0.401458C80.992 0.401458 80.8487 0.458809 80.8487 0.630862C80.8487 0.745565 80.9634 0.802917 81.078 0.802917C81.3361 0.802917 81.8235 0.831592 82.0528 0.888942C82.999 1.08967 83.2283 1.54848 83.2857 2.52345C83.343 3.44107 83.343 4.24399 83.343 8.71738V13.7643Z" fill="white"/>
<path d="M104.684 8.71738C104.684 4.24399 104.684 3.44107 104.741 2.52345C104.799 1.51981 105.028 1.03232 105.86 0.888942C106.204 0.831592 106.605 0.802917 106.806 0.802917C106.92 0.802917 107.035 0.745565 107.035 0.630862C107.035 0.458809 106.892 0.401458 106.576 0.401458C105.716 0.401458 103.623 0.487484 103.48 0.487484C103.337 0.487484 101.53 0.401458 100.24 0.401458C99.9248 0.401458 99.7814 0.458809 99.7814 0.630862C99.7814 0.745565 99.8961 0.802917 100.011 0.802917C100.269 0.802917 100.756 0.831592 100.986 0.888942C101.932 1.08967 102.161 1.54848 102.218 2.52345C102.276 3.44107 102.276 4.24399 102.276 8.71738V13.7643C102.276 16.5171 102.276 18.7825 102.132 19.9869C102.018 20.8185 101.874 21.4493 101.301 21.564C101.043 21.6214 100.699 21.6787 100.441 21.6787C100.269 21.6787 100.211 21.7648 100.211 21.8508C100.211 22.0229 100.355 22.0802 100.67 22.0802C101.1 22.0802 101.731 22.0515 102.304 22.0229C102.878 22.0229 103.365 21.9942 103.48 21.9942C104.311 21.9942 105.2 22.0229 106.404 22.0802C107.609 22.1089 109.099 22.1662 111.164 22.1662C112.683 22.1662 112.769 22.0515 112.97 21.392C113.199 20.5604 113.4 18.8399 113.4 18.5244C113.4 18.209 113.371 18.0943 113.228 18.0943C113.056 18.0943 112.999 18.2377 112.97 18.4671C112.884 19.0119 112.597 19.7288 112.225 20.1876C111.536 21.0192 110.275 21.0479 108.755 21.0479C106.519 21.0479 105.774 20.8472 105.315 20.3883C104.799 19.8722 104.684 18.0369 104.684 13.8216V8.71738Z" fill="white"/>
</svg>
